ISO-10303-21;
HEADER;

FILE_DESCRIPTION( (''), '2;1');
FILE_NAME ('9NK452WX90-00-LINER-A3-3D-01.stp','2026-07-26T15:34:29',(''),(''),'spGate 21.9.2 (****-****-****-****)','','');

FILE_SCHEMA (('AUTOMOTIVE_DESIGN'));
ENDSEC;

DATA;
#10=(GEOMETRIC_REPRESENTATION_CONTEXT(3) GLOBAL_UNCERTAINTY_ASSIGNED_CONTEXT((#12)) GLOBAL_UNIT_ASSIGNED_CONTEXT((#13,#14,#15)) REPRESENTATION_CONTEXT('ID1','3D'));
#12=UNCERTAINTY_MEASURE_WITH_UNIT(LENGTH_MEASURE(0.01),#16,'DISTANCE_ACCURACY_VALUE','Maximum model space distance between geometric entities at asserted connectivities');
#13=(NAMED_UNIT(*) SI_UNIT($,.STERADIAN.) SOLID_ANGLE_UNIT());
#14=(CONVERSION_BASED_UNIT('DEGREE',#28) NAMED_UNIT(#29) PLANE_ANGLE_UNIT());
#15=(LENGTH_UNIT() NAMED_UNIT(*) SI_UNIT(.MILLI.,.METRE.));
#16=(LENGTH_UNIT() NAMED_UNIT(*) SI_UNIT(.MILLI.,.METRE.));
#17=AXIS2_PLACEMENT_3D('',#31,#32,#33);
#18=AXIS2_PLACEMENT_3D('',#34,#35,#36);
#19=PRODUCT_DEFINITION('','',#41,#42);
#20=AXIS2_PLACEMENT_3D('',#43,#44,#45);
#21=SHAPE_REPRESENTATION('Assembly',(#18,#20),#10);
#22=AXIS2_PLACEMENT_3D('',#48,#49,#50);
#23=PRODUCT_DEFINITION('','',#55,#56);
#24=SHAPE_REPRESENTATION('9NK452WX90-00-LINER-A3-3D-01-prt0',(#22),#10);
#25=ITEM_DEFINED_TRANSFORMATION('','',#20,#22);
#26=(REPRESENTATION_RELATIONSHIP('','',#21,#24) REPRESENTATION_RELATIONSHIP_WITH_TRANSFORMATION(#25) SHAPE_REPRESENTATION_RELATIONSHIP());
#28=PLANE_ANGLE_MEASURE_WITH_UNIT(PLANE_ANGLE_MEASURE(0.01745329252),#30);
#29=DIMENSIONAL_EXPONENTS(0.0,0.0,0.0,0.0,0.0,0.0,0.0);
#30=(NAMED_UNIT(*) PLANE_ANGLE_UNIT() SI_UNIT($,.RADIAN.));
#31=CARTESIAN_POINT('',(0.00000000000E+00,0.00000000000E+00,0.00000000000E+00));
#32=DIRECTION('',(0.00000000000E+00,0.00000000000E+00,1.00000000000E+00));
#33=DIRECTION('',(1.00000000000E+00,0.00000000000E+00,0.00000000000E+00));
#34=CARTESIAN_POINT('',(0.00000000000E+00,0.00000000000E+00,0.00000000000E+00));
#35=DIRECTION('',(0.00000000000E+00,0.00000000000E+00,1.00000000000E+00));
#36=DIRECTION('',(1.00000000000E+00,0.00000000000E+00,0.00000000000E+00));
#37=APPLICATION_CONTEXT('configuration controlled 3d designs of mechanical parts and assemblies');
#38=APPLICATION_PROTOCOL_DEFINITION('International Standard','automotive_design',1999,#37);
#39=PRODUCT_CONTEXT('',#37,'');
#40=PRODUCT('Assembly','Assembly','',(#39));
#41=PRODUCT_DEFINITION_FORMATION_WITH_SPECIFIED_SOURCE('','',#40,.NOT_KNOWN.);
#42=PRODUCT_DEFINITION_CONTEXT('design',#37,'');
#43=CARTESIAN_POINT('',(0.00000000000E+00,0.00000000000E+00,0.00000000000E+00));
#44=DIRECTION('',(0.00000000000E+00,0.00000000000E+00,1.00000000000E+00));
#45=DIRECTION('',(1.00000000000E+00,0.00000000000E+00,0.00000000000E+00));
#46=PRODUCT_DEFINITION_SHAPE('','',#19);
#47=SHAPE_DEFINITION_REPRESENTATION(#46,#21);
#48=CARTESIAN_POINT('',(0.00000000000E+00,0.00000000000E+00,0.00000000000E+00));
#49=DIRECTION('',(0.00000000000E+00,0.00000000000E+00,1.00000000000E+00));
#50=DIRECTION('',(1.00000000000E+00,0.00000000000E+00,0.00000000000E+00));
#51=APPLICATION_CONTEXT('configuration controlled 3d designs of mechanical parts and assemblies');
#52=APPLICATION_PROTOCOL_DEFINITION('International Standard','automotive_design',1999,#51);
#53=PRODUCT_CONTEXT('',#51,'');
#54=PRODUCT('9NK452WX90-00-LINER-A3-3D-01-prt0','9NK452WX90-00-LINER-A3-3D-01-prt0','',(#53));
#55=PRODUCT_DEFINITION_FORMATION_WITH_SPECIFIED_SOURCE('','',#54,.NOT_KNOWN.);
#56=PRODUCT_DEFINITION_CONTEXT('design',#51,'');
#57=PRODUCT_DEFINITION_SHAPE('','',#23);
#58=SHAPE_DEFINITION_REPRESENTATION(#57,#24);
#59=NEXT_ASSEMBLY_USAGE_OCCURRENCE('','','',#19,#23,'');
#60=PRODUCT_DEFINITION_SHAPE('','',#59);
#61=CONTEXT_DEPENDENT_SHAPE_REPRESENTATION(#26,#60);
#63=SHAPE_REPRESENTATION_RELATIONSHIP('','',#24,#65);
#64=MANIFOLD_SOLID_BREP('',#66);
#65=ADVANCED_BREP_SHAPE_REPRESENTATION('',(#64),#10);
#66=CLOSED_SHELL('',(#75,#76,#77,#78,#79,#80,#81,#82,#83,#84,#85,#86,#87,#88));
#67=COLOUR_RGB('',0.00000000000E+00,0.00000000000E+00,0.00000000000E+00);
#68=FILL_AREA_STYLE_COLOUR('',#67);
#69=FILL_AREA_STYLE('',(#68));
#70=SURFACE_STYLE_FILL_AREA(#69);
#71=SURFACE_SIDE_STYLE('',(#70));
#72=SURFACE_STYLE_USAGE(.BOTH.,#71);
#73=PRESENTATION_STYLE_ASSIGNMENT((#72));
#74=STYLED_ITEM('',(#73),#64);
#75=ADVANCED_FACE('',(#90,#91,#92,#93,#94,#95),#89,.T.);
#76=ADVANCED_FACE('',(#105,#106,#107,#108,#109,#110),#104,.T.);
#77=ADVANCED_FACE('',(#120),#119,.F.);
#78=ADVANCED_FACE('',(#130),#129,.F.);
#79=ADVANCED_FACE('',(#140),#139,.F.);
#80=ADVANCED_FACE('',(#150),#149,.F.);
#81=ADVANCED_FACE('',(#160),#159,.F.);
#82=ADVANCED_FACE('',(#170),#169,.F.);
#83=ADVANCED_FACE('',(#180),#179,.F.);
#84=ADVANCED_FACE('',(#190),#189,.F.);
#85=ADVANCED_FACE('',(#200),#199,.F.);
#86=ADVANCED_FACE('',(#210),#209,.F.);
#87=ADVANCED_FACE('',(#220),#219,.T.);
#88=ADVANCED_FACE('',(#230),#229,.T.);
#89=PLANE('',#242);
#90=FACE_OUTER_BOUND('',#243,.T.);
#91=FACE_BOUND('',#244,.T.);
#92=FACE_BOUND('',#245,.T.);
#93=FACE_BOUND('',#246,.T.);
#94=FACE_BOUND('',#247,.T.);
#95=FACE_BOUND('',#248,.T.);
#96=COLOUR_RGB('',1.00000000000E+00,1.00000000000E+00,1.00000000000E+00);
#97=FILL_AREA_STYLE_COLOUR('',#96);
#98=FILL_AREA_STYLE('',(#97));
#99=SURFACE_STYLE_FILL_AREA(#98);
#100=SURFACE_SIDE_STYLE('',(#99));
#101=SURFACE_STYLE_USAGE(.BOTH.,#100);
#102=PRESENTATION_STYLE_ASSIGNMENT((#101));
#103=STYLED_ITEM('',(#102),#75);
#104=PLANE('',#252);
#105=FACE_OUTER_BOUND('',#253,.T.);
#106=FACE_BOUND('',#254,.T.);
#107=FACE_BOUND('',#255,.T.);
#108=FACE_BOUND('',#256,.T.);
#109=FACE_BOUND('',#257,.T.);
#110=FACE_BOUND('',#258,.T.);
#111=COLOUR_RGB('',1.00000000000E+00,1.00000000000E+00,1.00000000000E+00);
#112=FILL_AREA_STYLE_COLOUR('',#111);
#113=FILL_AREA_STYLE('',(#112));
#114=SURFACE_STYLE_FILL_AREA(#113);
#115=SURFACE_SIDE_STYLE('',(#114));
#116=SURFACE_STYLE_USAGE(.BOTH.,#115);
#117=PRESENTATION_STYLE_ASSIGNMENT((#116));
#118=STYLED_ITEM('',(#117),#76);
#119=CYLINDRICAL_SURFACE('',#262,1.75000000000E+01);
#120=FACE_OUTER_BOUND('',#263,.T.);
#121=COLOUR_RGB('',1.00000000000E+00,1.00000000000E+00,1.00000000000E+00);
#122=FILL_AREA_STYLE_COLOUR('',#121);
#123=FILL_AREA_STYLE('',(#122));
#124=SURFACE_STYLE_FILL_AREA(#123);
#125=SURFACE_SIDE_STYLE('',(#124));
#126=SURFACE_STYLE_USAGE(.BOTH.,#125);
#127=PRESENTATION_STYLE_ASSIGNMENT((#126));
#128=STYLED_ITEM('',(#127),#77);
#129=CYLINDRICAL_SURFACE('',#267,1.75000000000E+01);
#130=FACE_OUTER_BOUND('',#268,.T.);
#131=COLOUR_RGB('',1.00000000000E+00,1.00000000000E+00,1.00000000000E+00);
#132=FILL_AREA_STYLE_COLOUR('',#131);
#133=FILL_AREA_STYLE('',(#132));
#134=SURFACE_STYLE_FILL_AREA(#133);
#135=SURFACE_SIDE_STYLE('',(#134));
#136=SURFACE_STYLE_USAGE(.BOTH.,#135);
#137=PRESENTATION_STYLE_ASSIGNMENT((#136));
#138=STYLED_ITEM('',(#137),#78);
#139=CYLINDRICAL_SURFACE('',#272,4.50000000000E+00);
#140=FACE_OUTER_BOUND('',#273,.T.);
#141=COLOUR_RGB('',1.00000000000E+00,1.00000000000E+00,1.00000000000E+00);
#142=FILL_AREA_STYLE_COLOUR('',#141);
#143=FILL_AREA_STYLE('',(#142));
#144=SURFACE_STYLE_FILL_AREA(#143);
#145=SURFACE_SIDE_STYLE('',(#144));
#146=SURFACE_STYLE_USAGE(.BOTH.,#145);
#147=PRESENTATION_STYLE_ASSIGNMENT((#146));
#148=STYLED_ITEM('',(#147),#79);
#149=CYLINDRICAL_SURFACE('',#277,4.50000000000E+00);
#150=FACE_OUTER_BOUND('',#278,.T.);
#151=COLOUR_RGB('',1.00000000000E+00,1.00000000000E+00,1.00000000000E+00);
#152=FILL_AREA_STYLE_COLOUR('',#151);
#153=FILL_AREA_STYLE('',(#152));
#154=SURFACE_STYLE_FILL_AREA(#153);
#155=SURFACE_SIDE_STYLE('',(#154));
#156=SURFACE_STYLE_USAGE(.BOTH.,#155);
#157=PRESENTATION_STYLE_ASSIGNMENT((#156));
#158=STYLED_ITEM('',(#157),#80);
#159=CYLINDRICAL_SURFACE('',#282,4.50000000000E+00);
#160=FACE_OUTER_BOUND('',#283,.T.);
#161=COLOUR_RGB('',1.00000000000E+00,1.00000000000E+00,1.00000000000E+00);
#162=FILL_AREA_STYLE_COLOUR('',#161);
#163=FILL_AREA_STYLE('',(#162));
#164=SURFACE_STYLE_FILL_AREA(#163);
#165=SURFACE_SIDE_STYLE('',(#164));
#166=SURFACE_STYLE_USAGE(.BOTH.,#165);
#167=PRESENTATION_STYLE_ASSIGNMENT((#166));
#168=STYLED_ITEM('',(#167),#81);
#169=CYLINDRICAL_SURFACE('',#287,4.50000000000E+00);
#170=FACE_OUTER_BOUND('',#288,.T.);
#171=COLOUR_RGB('',1.00000000000E+00,1.00000000000E+00,1.00000000000E+00);
#172=FILL_AREA_STYLE_COLOUR('',#171);
#173=FILL_AREA_STYLE('',(#172));
#174=SURFACE_STYLE_FILL_AREA(#173);
#175=SURFACE_SIDE_STYLE('',(#174));
#176=SURFACE_STYLE_USAGE(.BOTH.,#175);
#177=PRESENTATION_STYLE_ASSIGNMENT((#176));
#178=STYLED_ITEM('',(#177),#82);
#179=CYLINDRICAL_SURFACE('',#292,4.50000000000E+00);
#180=FACE_OUTER_BOUND('',#293,.T.);
#181=COLOUR_RGB('',1.00000000000E+00,1.00000000000E+00,1.00000000000E+00);
#182=FILL_AREA_STYLE_COLOUR('',#181);
#183=FILL_AREA_STYLE('',(#182));
#184=SURFACE_STYLE_FILL_AREA(#183);
#185=SURFACE_SIDE_STYLE('',(#184));
#186=SURFACE_STYLE_USAGE(.BOTH.,#185);
#187=PRESENTATION_STYLE_ASSIGNMENT((#186));
#188=STYLED_ITEM('',(#187),#83);
#189=CYLINDRICAL_SURFACE('',#297,4.50000000000E+00);
#190=FACE_OUTER_BOUND('',#298,.T.);
#191=COLOUR_RGB('',1.00000000000E+00,1.00000000000E+00,1.00000000000E+00);
#192=FILL_AREA_STYLE_COLOUR('',#191);
#193=FILL_AREA_STYLE('',(#192));
#194=SURFACE_STYLE_FILL_AREA(#193);
#195=SURFACE_SIDE_STYLE('',(#194));
#196=SURFACE_STYLE_USAGE(.BOTH.,#195);
#197=PRESENTATION_STYLE_ASSIGNMENT((#196));
#198=STYLED_ITEM('',(#197),#84);
#199=CYLINDRICAL_SURFACE('',#302,4.50000000000E+00);
#200=FACE_OUTER_BOUND('',#303,.T.);
#201=COLOUR_RGB('',1.00000000000E+00,1.00000000000E+00,1.00000000000E+00);
#202=FILL_AREA_STYLE_COLOUR('',#201);
#203=FILL_AREA_STYLE('',(#202));
#204=SURFACE_STYLE_FILL_AREA(#203);
#205=SURFACE_SIDE_STYLE('',(#204));
#206=SURFACE_STYLE_USAGE(.BOTH.,#205);
#207=PRESENTATION_STYLE_ASSIGNMENT((#206));
#208=STYLED_ITEM('',(#207),#85);
#209=CYLINDRICAL_SURFACE('',#307,4.50000000000E+00);
#210=FACE_OUTER_BOUND('',#308,.T.);
#211=COLOUR_RGB('',1.00000000000E+00,1.00000000000E+00,1.00000000000E+00);
#212=FILL_AREA_STYLE_COLOUR('',#211);
#213=FILL_AREA_STYLE('',(#212));
#214=SURFACE_STYLE_FILL_AREA(#213);
#215=SURFACE_SIDE_STYLE('',(#214));
#216=SURFACE_STYLE_USAGE(.BOTH.,#215);
#217=PRESENTATION_STYLE_ASSIGNMENT((#216));
#218=STYLED_ITEM('',(#217),#86);
#219=CYLINDRICAL_SURFACE('',#312,3.80000000000E+01);
#220=FACE_OUTER_BOUND('',#313,.T.);
#221=COLOUR_RGB('',1.00000000000E+00,1.00000000000E+00,1.00000000000E+00);
#222=FILL_AREA_STYLE_COLOUR('',#221);
#223=FILL_AREA_STYLE('',(#222));
#224=SURFACE_STYLE_FILL_AREA(#223);
#225=SURFACE_SIDE_STYLE('',(#224));
#226=SURFACE_STYLE_USAGE(.BOTH.,#225);
#227=PRESENTATION_STYLE_ASSIGNMENT((#226));
#228=STYLED_ITEM('',(#227),#87);
#229=CYLINDRICAL_SURFACE('',#317,3.80000000000E+01);
#230=FACE_OUTER_BOUND('',#318,.T.);
#231=COLOUR_RGB('',1.00000000000E+00,1.00000000000E+00,1.00000000000E+00);
#232=FILL_AREA_STYLE_COLOUR('',#231);
#233=FILL_AREA_STYLE('',(#232));
#234=SURFACE_STYLE_FILL_AREA(#233);
#235=SURFACE_SIDE_STYLE('',(#234));
#236=SURFACE_STYLE_USAGE(.BOTH.,#235);
#237=PRESENTATION_STYLE_ASSIGNMENT((#236));
#238=STYLED_ITEM('',(#237),#88);
#239=CARTESIAN_POINT('',(-4.80000000000E+01,-7.58179306876E+01,-2.93915231795E-15));
#240=DIRECTION('',(-6.12323399574E-17,0.00000000000E+00,1.00000000000E+00));
#241=DIRECTION('',(1.00000000000E+00,0.00000000000E+00,6.12323399574E-17));
#242=AXIS2_PLACEMENT_3D('',#239,#240,#241);
#243=EDGE_LOOP('',(#319,#320));
#244=EDGE_LOOP('',(#321,#322));
#245=EDGE_LOOP('',(#323,#324));
#246=EDGE_LOOP('',(#325,#326));
#247=EDGE_LOOP('',(#327,#328));
#248=EDGE_LOOP('',(#329,#330));
#249=CARTESIAN_POINT('',(4.80000000000E+01,-7.58179306876E+01,-7.00000000000E+00));
#250=DIRECTION('',(6.12323399574E-17,0.00000000000E+00,-1.00000000000E+00));
#251=DIRECTION('',(-1.00000000000E+00,0.00000000000E+00,-6.12323399574E-17));
#252=AXIS2_PLACEMENT_3D('',#249,#250,#251);
#253=EDGE_LOOP('',(#331,#332));
#254=EDGE_LOOP('',(#333,#334));
#255=EDGE_LOOP('',(#335,#336));
#256=EDGE_LOOP('',(#337,#338));
#257=EDGE_LOOP('',(#339,#340));
#258=EDGE_LOOP('',(#341,#342));
#259=CARTESIAN_POINT('',(-4.28626379702E-16,0.00000000000E+00,0.00000000000E+00));
#260=DIRECTION('',(-6.12323399574E-17,-0.00000000000E+00,1.00000000000E+00));
#261=DIRECTION('',(1.00000000000E+00,-0.00000000000E+00,6.12323399574E-17));
#262=AXIS2_PLACEMENT_3D('',#259,#260,#261);
#263=EDGE_LOOP('',(#343,#344,#345,#346));
#264=CARTESIAN_POINT('',(-4.28626379702E-16,0.00000000000E+00,0.00000000000E+00));
#265=DIRECTION('',(-6.12323399574E-17,-0.00000000000E+00,1.00000000000E+00));
#266=DIRECTION('',(1.00000000000E+00,-0.00000000000E+00,6.12323399574E-17));
#267=AXIS2_PLACEMENT_3D('',#264,#265,#266);
#268=EDGE_LOOP('',(#347,#348,#349,#350));
#269=CARTESIAN_POINT('',(1.97989898732E+01,-1.97989898732E+01,0.00000000000E+00));
#270=DIRECTION('',(-6.12323399574E-17,-0.00000000000E+00,1.00000000000E+00));
#271=DIRECTION('',(1.00000000000E+00,0.00000000000E+00,6.12323399574E-17));
#272=AXIS2_PLACEMENT_3D('',#269,#270,#271);
#273=EDGE_LOOP('',(#351,#352,#353,#354));
#274=CARTESIAN_POINT('',(1.97989898732E+01,-1.97989898732E+01,0.00000000000E+00));
#275=DIRECTION('',(-6.12323399574E-17,-0.00000000000E+00,1.00000000000E+00));
#276=DIRECTION('',(1.00000000000E+00,0.00000000000E+00,6.12323399574E-17));
#277=AXIS2_PLACEMENT_3D('',#274,#275,#276);
#278=EDGE_LOOP('',(#355,#356,#357,#358));
#279=CARTESIAN_POINT('',(1.97989898732E+01,1.97989898732E+01,0.00000000000E+00));
#280=DIRECTION('',(-6.12323399574E-17,-0.00000000000E+00,1.00000000000E+00));
#281=DIRECTION('',(1.00000000000E+00,0.00000000000E+00,6.12323399574E-17));
#282=AXIS2_PLACEMENT_3D('',#279,#280,#281);
#283=EDGE_LOOP('',(#359,#360,#361,#362));
#284=CARTESIAN_POINT('',(1.97989898732E+01,1.97989898732E+01,0.00000000000E+00));
#285=DIRECTION('',(-6.12323399574E-17,-0.00000000000E+00,1.00000000000E+00));
#286=DIRECTION('',(1.00000000000E+00,0.00000000000E+00,6.12323399574E-17));
#287=AXIS2_PLACEMENT_3D('',#284,#285,#286);
#288=EDGE_LOOP('',(#363,#364,#365,#366));
#289=CARTESIAN_POINT('',(-1.97989898732E+01,1.97989898732E+01,0.00000000000E+00));
#290=DIRECTION('',(-6.12323399574E-17,-0.00000000000E+00,1.00000000000E+00));
#291=DIRECTION('',(1.00000000000E+00,0.00000000000E+00,6.12323399574E-17));
#292=AXIS2_PLACEMENT_3D('',#289,#290,#291);
#293=EDGE_LOOP('',(#367,#368,#369,#370));
#294=CARTESIAN_POINT('',(-1.97989898732E+01,1.97989898732E+01,0.00000000000E+00));
#295=DIRECTION('',(-6.12323399574E-17,-0.00000000000E+00,1.00000000000E+00));
#296=DIRECTION('',(1.00000000000E+00,0.00000000000E+00,6.12323399574E-17));
#297=AXIS2_PLACEMENT_3D('',#294,#295,#296);
#298=EDGE_LOOP('',(#371,#372,#373,#374));
#299=CARTESIAN_POINT('',(-1.97989898732E+01,-1.97989898732E+01,0.00000000000E+00));
#300=DIRECTION('',(-6.12323399574E-17,-0.00000000000E+00,1.00000000000E+00));
#301=DIRECTION('',(1.00000000000E+00,0.00000000000E+00,6.12323399574E-17));
#302=AXIS2_PLACEMENT_3D('',#299,#300,#301);
#303=EDGE_LOOP('',(#375,#376,#377,#378));
#304=CARTESIAN_POINT('',(-1.97989898732E+01,-1.97989898732E+01,0.00000000000E+00));
#305=DIRECTION('',(-6.12323399574E-17,-0.00000000000E+00,1.00000000000E+00));
#306=DIRECTION('',(1.00000000000E+00,0.00000000000E+00,6.12323399574E-17));
#307=AXIS2_PLACEMENT_3D('',#304,#305,#306);
#308=EDGE_LOOP('',(#379,#380,#381,#382));
#309=CARTESIAN_POINT('',(0.00000000000E+00,0.00000000000E+00,-7.00000000000E+00));
#310=DIRECTION('',(6.12323399574E-17,-0.00000000000E+00,-1.00000000000E+00));
#311=DIRECTION('',(-1.00000000000E+00,-0.00000000000E+00,-6.12323399574E-17));
#312=AXIS2_PLACEMENT_3D('',#309,#310,#311);
#313=EDGE_LOOP('',(#383,#384,#385,#386));
#314=CARTESIAN_POINT('',(0.00000000000E+00,0.00000000000E+00,-7.00000000000E+00));
#315=DIRECTION('',(6.12323399574E-17,-0.00000000000E+00,-1.00000000000E+00));
#316=DIRECTION('',(-1.00000000000E+00,-0.00000000000E+00,-6.12323399574E-17));
#317=AXIS2_PLACEMENT_3D('',#314,#315,#316);
#318=EDGE_LOOP('',(#387,#388,#389,#390));
#319=ORIENTED_EDGE('',*,*,#391,.F.);
#320=ORIENTED_EDGE('',*,*,#392,.F.);
#321=ORIENTED_EDGE('',*,*,#393,.T.);
#322=ORIENTED_EDGE('',*,*,#394,.T.);
#323=ORIENTED_EDGE('',*,*,#395,.T.);
#324=ORIENTED_EDGE('',*,*,#396,.T.);
#325=ORIENTED_EDGE('',*,*,#397,.T.);
#326=ORIENTED_EDGE('',*,*,#398,.T.);
#327=ORIENTED_EDGE('',*,*,#399,.T.);
#328=ORIENTED_EDGE('',*,*,#400,.T.);
#329=ORIENTED_EDGE('',*,*,#401,.T.);
#330=ORIENTED_EDGE('',*,*,#402,.T.);
#331=ORIENTED_EDGE('',*,*,#403,.F.);
#332=ORIENTED_EDGE('',*,*,#404,.F.);
#333=ORIENTED_EDGE('',*,*,#405,.T.);
#334=ORIENTED_EDGE('',*,*,#406,.T.);
#335=ORIENTED_EDGE('',*,*,#407,.T.);
#336=ORIENTED_EDGE('',*,*,#408,.T.);
#337=ORIENTED_EDGE('',*,*,#409,.T.);
#338=ORIENTED_EDGE('',*,*,#410,.T.);
#339=ORIENTED_EDGE('',*,*,#411,.T.);
#340=ORIENTED_EDGE('',*,*,#412,.T.);
#341=ORIENTED_EDGE('',*,*,#413,.T.);
#342=ORIENTED_EDGE('',*,*,#414,.T.);
#343=ORIENTED_EDGE('',*,*,#413,.F.);
#344=ORIENTED_EDGE('',*,*,#415,.T.);
#345=ORIENTED_EDGE('',*,*,#401,.F.);
#346=ORIENTED_EDGE('',*,*,#416,.F.);
#347=ORIENTED_EDGE('',*,*,#402,.F.);
#348=ORIENTED_EDGE('',*,*,#415,.F.);
#349=ORIENTED_EDGE('',*,*,#414,.F.);
#350=ORIENTED_EDGE('',*,*,#416,.T.);
#351=ORIENTED_EDGE('',*,*,#405,.F.);
#352=ORIENTED_EDGE('',*,*,#417,.T.);
#353=ORIENTED_EDGE('',*,*,#393,.F.);
#354=ORIENTED_EDGE('',*,*,#418,.F.);
#355=ORIENTED_EDGE('',*,*,#394,.F.);
#356=ORIENTED_EDGE('',*,*,#417,.F.);
#357=ORIENTED_EDGE('',*,*,#406,.F.);
#358=ORIENTED_EDGE('',*,*,#418,.T.);
#359=ORIENTED_EDGE('',*,*,#411,.F.);
#360=ORIENTED_EDGE('',*,*,#419,.T.);
#361=ORIENTED_EDGE('',*,*,#399,.F.);
#362=ORIENTED_EDGE('',*,*,#420,.F.);
#363=ORIENTED_EDGE('',*,*,#400,.F.);
#364=ORIENTED_EDGE('',*,*,#419,.F.);
#365=ORIENTED_EDGE('',*,*,#412,.F.);
#366=ORIENTED_EDGE('',*,*,#420,.T.);
#367=ORIENTED_EDGE('',*,*,#409,.F.);
#368=ORIENTED_EDGE('',*,*,#421,.T.);
#369=ORIENTED_EDGE('',*,*,#397,.F.);
#370=ORIENTED_EDGE('',*,*,#422,.F.);
#371=ORIENTED_EDGE('',*,*,#398,.F.);
#372=ORIENTED_EDGE('',*,*,#421,.F.);
#373=ORIENTED_EDGE('',*,*,#410,.F.);
#374=ORIENTED_EDGE('',*,*,#422,.T.);
#375=ORIENTED_EDGE('',*,*,#407,.F.);
#376=ORIENTED_EDGE('',*,*,#423,.T.);
#377=ORIENTED_EDGE('',*,*,#395,.F.);
#378=ORIENTED_EDGE('',*,*,#424,.F.);
#379=ORIENTED_EDGE('',*,*,#396,.F.);
#380=ORIENTED_EDGE('',*,*,#423,.F.);
#381=ORIENTED_EDGE('',*,*,#408,.F.);
#382=ORIENTED_EDGE('',*,*,#424,.T.);
#383=ORIENTED_EDGE('',*,*,#404,.T.);
#384=ORIENTED_EDGE('',*,*,#425,.F.);
#385=ORIENTED_EDGE('',*,*,#392,.T.);
#386=ORIENTED_EDGE('',*,*,#426,.T.);
#387=ORIENTED_EDGE('',*,*,#391,.T.);
#388=ORIENTED_EDGE('',*,*,#425,.T.);
#389=ORIENTED_EDGE('',*,*,#403,.T.);
#390=ORIENTED_EDGE('',*,*,#426,.F.);
#391=EDGE_CURVE('',#427,#428,#429,.T.);
#392=EDGE_CURVE('',#428,#427,#435,.T.);
#393=EDGE_CURVE('',#441,#442,#443,.T.);
#394=EDGE_CURVE('',#442,#441,#449,.T.);
#395=EDGE_CURVE('',#455,#456,#457,.T.);
#396=EDGE_CURVE('',#456,#455,#463,.T.);
#397=EDGE_CURVE('',#469,#470,#471,.T.);
#398=EDGE_CURVE('',#470,#469,#477,.T.);
#399=EDGE_CURVE('',#483,#484,#485,.T.);
#400=EDGE_CURVE('',#484,#483,#491,.T.);
#401=EDGE_CURVE('',#497,#498,#499,.T.);
#402=EDGE_CURVE('',#498,#497,#505,.T.);
#403=EDGE_CURVE('',#511,#512,#513,.T.);
#404=EDGE_CURVE('',#512,#511,#519,.T.);
#405=EDGE_CURVE('',#525,#526,#527,.T.);
#406=EDGE_CURVE('',#526,#525,#533,.T.);
#407=EDGE_CURVE('',#539,#540,#541,.T.);
#408=EDGE_CURVE('',#540,#539,#547,.T.);
#409=EDGE_CURVE('',#553,#554,#555,.T.);
#410=EDGE_CURVE('',#554,#553,#561,.T.);
#411=EDGE_CURVE('',#567,#568,#569,.T.);
#412=EDGE_CURVE('',#568,#567,#575,.T.);
#413=EDGE_CURVE('',#581,#582,#583,.T.);
#414=EDGE_CURVE('',#582,#581,#589,.T.);
#415=EDGE_CURVE('',#581,#498,#595,.T.);
#416=EDGE_CURVE('',#582,#497,#601,.T.);
#417=EDGE_CURVE('',#525,#442,#607,.T.);
#418=EDGE_CURVE('',#526,#441,#613,.T.);
#419=EDGE_CURVE('',#567,#484,#619,.T.);
#420=EDGE_CURVE('',#568,#483,#625,.T.);
#421=EDGE_CURVE('',#553,#470,#631,.T.);
#422=EDGE_CURVE('',#554,#469,#637,.T.);
#423=EDGE_CURVE('',#539,#456,#643,.T.);
#424=EDGE_CURVE('',#540,#455,#649,.T.);
#425=EDGE_CURVE('',#428,#511,#655,.T.);
#426=EDGE_CURVE('',#427,#512,#661,.T.);
#427=VERTEX_POINT('',#667);
#428=VERTEX_POINT('',#668);
#429=CIRCLE('',#672,3.80000000000E+01);
#430=COLOUR_RGB('',1.00000000000E+00,1.00000000000E+00,1.00000000000E+00);
#431=DRAUGHTING_PRE_DEFINED_CURVE_FONT('continuous');
#432=CURVE_STYLE( '',#431, POSITIVE_LENGTH_MEASURE(1.00000000000E-06),#430);
#433=PRESENTATION_STYLE_ASSIGNMENT((#432));
#434=STYLED_ITEM('',(#433),#391);
#435=CIRCLE('',#676,3.80000000000E+01);
#436=COLOUR_RGB('',1.00000000000E+00,1.00000000000E+00,1.00000000000E+00);
#437=DRAUGHTING_PRE_DEFINED_CURVE_FONT('continuous');
#438=CURVE_STYLE( '',#437, POSITIVE_LENGTH_MEASURE(1.00000000000E-06),#436);
#439=PRESENTATION_STYLE_ASSIGNMENT((#438));
#440=STYLED_ITEM('',(#439),#392);
#441=VERTEX_POINT('',#677);
#442=VERTEX_POINT('',#678);
#443=CIRCLE('',#682,4.50000000000E+00);
#444=COLOUR_RGB('',1.00000000000E+00,1.00000000000E+00,1.00000000000E+00);
#445=DRAUGHTING_PRE_DEFINED_CURVE_FONT('continuous');
#446=CURVE_STYLE( '',#445, POSITIVE_LENGTH_MEASURE(1.00000000000E-06),#444);
#447=PRESENTATION_STYLE_ASSIGNMENT((#446));
#448=STYLED_ITEM('',(#447),#393);
#449=CIRCLE('',#686,4.50000000000E+00);
#450=COLOUR_RGB('',1.00000000000E+00,1.00000000000E+00,1.00000000000E+00);
#451=DRAUGHTING_PRE_DEFINED_CURVE_FONT('continuous');
#452=CURVE_STYLE( '',#451, POSITIVE_LENGTH_MEASURE(1.00000000000E-06),#450);
#453=PRESENTATION_STYLE_ASSIGNMENT((#452));
#454=STYLED_ITEM('',(#453),#394);
#455=VERTEX_POINT('',#687);
#456=VERTEX_POINT('',#688);
#457=CIRCLE('',#692,4.50000000000E+00);
#458=COLOUR_RGB('',1.00000000000E+00,1.00000000000E+00,1.00000000000E+00);
#459=DRAUGHTING_PRE_DEFINED_CURVE_FONT('continuous');
#460=CURVE_STYLE( '',#459, POSITIVE_LENGTH_MEASURE(1.00000000000E-06),#458);
#461=PRESENTATION_STYLE_ASSIGNMENT((#460));
#462=STYLED_ITEM('',(#461),#395);
#463=CIRCLE('',#696,4.50000000000E+00);
#464=COLOUR_RGB('',1.00000000000E+00,1.00000000000E+00,1.00000000000E+00);
#465=DRAUGHTING_PRE_DEFINED_CURVE_FONT('continuous');
#466=CURVE_STYLE( '',#465, POSITIVE_LENGTH_MEASURE(1.00000000000E-06),#464);
#467=PRESENTATION_STYLE_ASSIGNMENT((#466));
#468=STYLED_ITEM('',(#467),#396);
#469=VERTEX_POINT('',#697);
#470=VERTEX_POINT('',#698);
#471=CIRCLE('',#702,4.50000000000E+00);
#472=COLOUR_RGB('',1.00000000000E+00,1.00000000000E+00,1.00000000000E+00);
#473=DRAUGHTING_PRE_DEFINED_CURVE_FONT('continuous');
#474=CURVE_STYLE( '',#473, POSITIVE_LENGTH_MEASURE(1.00000000000E-06),#472);
#475=PRESENTATION_STYLE_ASSIGNMENT((#474));
#476=STYLED_ITEM('',(#475),#397);
#477=CIRCLE('',#706,4.50000000000E+00);
#478=COLOUR_RGB('',1.00000000000E+00,1.00000000000E+00,1.00000000000E+00);
#479=DRAUGHTING_PRE_DEFINED_CURVE_FONT('continuous');
#480=CURVE_STYLE( '',#479, POSITIVE_LENGTH_MEASURE(1.00000000000E-06),#478);
#481=PRESENTATION_STYLE_ASSIGNMENT((#480));
#482=STYLED_ITEM('',(#481),#398);
#483=VERTEX_POINT('',#707);
#484=VERTEX_POINT('',#708);
#485=CIRCLE('',#712,4.50000000000E+00);
#486=COLOUR_RGB('',1.00000000000E+00,1.00000000000E+00,1.00000000000E+00);
#487=DRAUGHTING_PRE_DEFINED_CURVE_FONT('continuous');
#488=CURVE_STYLE( '',#487, POSITIVE_LENGTH_MEASURE(1.00000000000E-06),#486);
#489=PRESENTATION_STYLE_ASSIGNMENT((#488));
#490=STYLED_ITEM('',(#489),#399);
#491=CIRCLE('',#716,4.50000000000E+00);
#492=COLOUR_RGB('',1.00000000000E+00,1.00000000000E+00,1.00000000000E+00);
#493=DRAUGHTING_PRE_DEFINED_CURVE_FONT('continuous');
#494=CURVE_STYLE( '',#493, POSITIVE_LENGTH_MEASURE(1.00000000000E-06),#492);
#495=PRESENTATION_STYLE_ASSIGNMENT((#494));
#496=STYLED_ITEM('',(#495),#400);
#497=VERTEX_POINT('',#717);
#498=VERTEX_POINT('',#718);
#499=CIRCLE('',#722,1.75000000000E+01);
#500=COLOUR_RGB('',1.00000000000E+00,1.00000000000E+00,1.00000000000E+00);
#501=DRAUGHTING_PRE_DEFINED_CURVE_FONT('continuous');
#502=CURVE_STYLE( '',#501, POSITIVE_LENGTH_MEASURE(1.00000000000E-06),#500);
#503=PRESENTATION_STYLE_ASSIGNMENT((#502));
#504=STYLED_ITEM('',(#503),#401);
#505=CIRCLE('',#726,1.75000000000E+01);
#506=COLOUR_RGB('',1.00000000000E+00,1.00000000000E+00,1.00000000000E+00);
#507=DRAUGHTING_PRE_DEFINED_CURVE_FONT('continuous');
#508=CURVE_STYLE( '',#507, POSITIVE_LENGTH_MEASURE(1.00000000000E-06),#506);
#509=PRESENTATION_STYLE_ASSIGNMENT((#508));
#510=STYLED_ITEM('',(#509),#402);
#511=VERTEX_POINT('',#727);
#512=VERTEX_POINT('',#728);
#513=CIRCLE('',#732,3.80000000000E+01);
#514=COLOUR_RGB('',1.00000000000E+00,1.00000000000E+00,1.00000000000E+00);
#515=DRAUGHTING_PRE_DEFINED_CURVE_FONT('continuous');
#516=CURVE_STYLE( '',#515, POSITIVE_LENGTH_MEASURE(1.00000000000E-06),#514);
#517=PRESENTATION_STYLE_ASSIGNMENT((#516));
#518=STYLED_ITEM('',(#517),#403);
#519=CIRCLE('',#736,3.80000000000E+01);
#520=COLOUR_RGB('',1.00000000000E+00,1.00000000000E+00,1.00000000000E+00);
#521=DRAUGHTING_PRE_DEFINED_CURVE_FONT('continuous');
#522=CURVE_STYLE( '',#521, POSITIVE_LENGTH_MEASURE(1.00000000000E-06),#520);
#523=PRESENTATION_STYLE_ASSIGNMENT((#522));
#524=STYLED_ITEM('',(#523),#404);
#525=VERTEX_POINT('',#737);
#526=VERTEX_POINT('',#738);
#527=CIRCLE('',#742,4.50000000000E+00);
#528=COLOUR_RGB('',1.00000000000E+00,1.00000000000E+00,1.00000000000E+00);
#529=DRAUGHTING_PRE_DEFINED_CURVE_FONT('continuous');
#530=CURVE_STYLE( '',#529, POSITIVE_LENGTH_MEASURE(1.00000000000E-06),#528);
#531=PRESENTATION_STYLE_ASSIGNMENT((#530));
#532=STYLED_ITEM('',(#531),#405);
#533=CIRCLE('',#746,4.50000000000E+00);
#534=COLOUR_RGB('',1.00000000000E+00,1.00000000000E+00,1.00000000000E+00);
#535=DRAUGHTING_PRE_DEFINED_CURVE_FONT('continuous');
#536=CURVE_STYLE( '',#535, POSITIVE_LENGTH_MEASURE(1.00000000000E-06),#534);
#537=PRESENTATION_STYLE_ASSIGNMENT((#536));
#538=STYLED_ITEM('',(#537),#406);
#539=VERTEX_POINT('',#747);
#540=VERTEX_POINT('',#748);
#541=CIRCLE('',#752,4.50000000000E+00);
#542=COLOUR_RGB('',1.00000000000E+00,1.00000000000E+00,1.00000000000E+00);
#543=DRAUGHTING_PRE_DEFINED_CURVE_FONT('continuous');
#544=CURVE_STYLE( '',#543, POSITIVE_LENGTH_MEASURE(1.00000000000E-06),#542);
#545=PRESENTATION_STYLE_ASSIGNMENT((#544));
#546=STYLED_ITEM('',(#545),#407);
#547=CIRCLE('',#756,4.50000000000E+00);
#548=COLOUR_RGB('',1.00000000000E+00,1.00000000000E+00,1.00000000000E+00);
#549=DRAUGHTING_PRE_DEFINED_CURVE_FONT('continuous');
#550=CURVE_STYLE( '',#549, POSITIVE_LENGTH_MEASURE(1.00000000000E-06),#548);
#551=PRESENTATION_STYLE_ASSIGNMENT((#550));
#552=STYLED_ITEM('',(#551),#408);
#553=VERTEX_POINT('',#757);
#554=VERTEX_POINT('',#758);
#555=CIRCLE('',#762,4.50000000000E+00);
#556=COLOUR_RGB('',1.00000000000E+00,1.00000000000E+00,1.00000000000E+00);
#557=DRAUGHTING_PRE_DEFINED_CURVE_FONT('continuous');
#558=CURVE_STYLE( '',#557, POSITIVE_LENGTH_MEASURE(1.00000000000E-06),#556);
#559=PRESENTATION_STYLE_ASSIGNMENT((#558));
#560=STYLED_ITEM('',(#559),#409);
#561=CIRCLE('',#766,4.50000000000E+00);
#562=COLOUR_RGB('',1.00000000000E+00,1.00000000000E+00,1.00000000000E+00);
#563=DRAUGHTING_PRE_DEFINED_CURVE_FONT('continuous');
#564=CURVE_STYLE( '',#563, POSITIVE_LENGTH_MEASURE(1.00000000000E-06),#562);
#565=PRESENTATION_STYLE_ASSIGNMENT((#564));
#566=STYLED_ITEM('',(#565),#410);
#567=VERTEX_POINT('',#767);
#568=VERTEX_POINT('',#768);
#569=CIRCLE('',#772,4.50000000000E+00);
#570=COLOUR_RGB('',1.00000000000E+00,1.00000000000E+00,1.00000000000E+00);
#571=DRAUGHTING_PRE_DEFINED_CURVE_FONT('continuous');
#572=CURVE_STYLE( '',#571, POSITIVE_LENGTH_MEASURE(1.00000000000E-06),#570);
#573=PRESENTATION_STYLE_ASSIGNMENT((#572));
#574=STYLED_ITEM('',(#573),#411);
#575=CIRCLE('',#776,4.50000000000E+00);
#576=COLOUR_RGB('',1.00000000000E+00,1.00000000000E+00,1.00000000000E+00);
#577=DRAUGHTING_PRE_DEFINED_CURVE_FONT('continuous');
#578=CURVE_STYLE( '',#577, POSITIVE_LENGTH_MEASURE(1.00000000000E-06),#576);
#579=PRESENTATION_STYLE_ASSIGNMENT((#578));
#580=STYLED_ITEM('',(#579),#412);
#581=VERTEX_POINT('',#777);
#582=VERTEX_POINT('',#778);
#583=CIRCLE('',#782,1.75000000000E+01);
#584=COLOUR_RGB('',1.00000000000E+00,1.00000000000E+00,1.00000000000E+00);
#585=DRAUGHTING_PRE_DEFINED_CURVE_FONT('continuous');
#586=CURVE_STYLE( '',#585, POSITIVE_LENGTH_MEASURE(1.00000000000E-06),#584);
#587=PRESENTATION_STYLE_ASSIGNMENT((#586));
#588=STYLED_ITEM('',(#587),#413);
#589=CIRCLE('',#786,1.75000000000E+01);
#590=COLOUR_RGB('',1.00000000000E+00,1.00000000000E+00,1.00000000000E+00);
#591=DRAUGHTING_PRE_DEFINED_CURVE_FONT('continuous');
#592=CURVE_STYLE( '',#591, POSITIVE_LENGTH_MEASURE(1.00000000000E-06),#590);
#593=PRESENTATION_STYLE_ASSIGNMENT((#592));
#594=STYLED_ITEM('',(#593),#414);
#595=(BOUNDED_CURVE() B_SPLINE_CURVE(1,(#787,#788),.UNSPECIFIED.,.F.,.F.) B_SPLINE_CURVE_WITH_KNOTS((2,2),(8.33333320912E-02,9.16666664070E-01),.UNSPECIFIED.) CURVE() GEOMETRIC_REPRESENTATION_ITEM() RATIONAL_B_SPLINE_CURVE((1.00000000000E+00,1.00000000000E+00)) REPRESENTATION_ITEM('') );
#596=COLOUR_RGB('',1.00000000000E+00,1.00000000000E+00,1.00000000000E+00);
#597=DRAUGHTING_PRE_DEFINED_CURVE_FONT('continuous');
#598=CURVE_STYLE( '',#597, POSITIVE_LENGTH_MEASURE(1.00000000000E-06),#596);
#599=PRESENTATION_STYLE_ASSIGNMENT((#598));
#600=STYLED_ITEM('',(#599),#415);
#601=(BOUNDED_CURVE() B_SPLINE_CURVE(1,(#789,#790),.UNSPECIFIED.,.F.,.F.) B_SPLINE_CURVE_WITH_KNOTS((2,2),(8.33333333333E-02,9.16666666667E-01),.UNSPECIFIED.) CURVE() GEOMETRIC_REPRESENTATION_ITEM() RATIONAL_B_SPLINE_CURVE((7.50000000000E-01,7.50000000000E-01)) REPRESENTATION_ITEM('') );
#602=COLOUR_RGB('',1.00000000000E+00,1.00000000000E+00,1.00000000000E+00);
#603=DRAUGHTING_PRE_DEFINED_CURVE_FONT('continuous');
#604=CURVE_STYLE( '',#603, POSITIVE_LENGTH_MEASURE(1.00000000000E-06),#602);
#605=PRESENTATION_STYLE_ASSIGNMENT((#604));
#606=STYLED_ITEM('',(#605),#416);
#607=(BOUNDED_CURVE() B_SPLINE_CURVE(1,(#791,#792),.UNSPECIFIED.,.F.,.F.) B_SPLINE_CURVE_WITH_KNOTS((2,2),(8.33333320912E-02,9.16666664070E-01),.UNSPECIFIED.) CURVE() GEOMETRIC_REPRESENTATION_ITEM() RATIONAL_B_SPLINE_CURVE((1.00000000000E+00,1.00000000000E+00)) REPRESENTATION_ITEM('') );
#608=COLOUR_RGB('',1.00000000000E+00,1.00000000000E+00,1.00000000000E+00);
#609=DRAUGHTING_PRE_DEFINED_CURVE_FONT('continuous');
#610=CURVE_STYLE( '',#609, POSITIVE_LENGTH_MEASURE(1.00000000000E-06),#608);
#611=PRESENTATION_STYLE_ASSIGNMENT((#610));
#612=STYLED_ITEM('',(#611),#417);
#613=(BOUNDED_CURVE() B_SPLINE_CURVE(1,(#793,#794),.UNSPECIFIED.,.F.,.F.) B_SPLINE_CURVE_WITH_KNOTS((2,2),(8.33333333333E-02,9.16666666667E-01),.UNSPECIFIED.) CURVE() GEOMETRIC_REPRESENTATION_ITEM() RATIONAL_B_SPLINE_CURVE((7.50000000000E-01,7.50000000000E-01)) REPRESENTATION_ITEM('') );
#614=COLOUR_RGB('',1.00000000000E+00,1.00000000000E+00,1.00000000000E+00);
#615=DRAUGHTING_PRE_DEFINED_CURVE_FONT('continuous');
#616=CURVE_STYLE( '',#615, POSITIVE_LENGTH_MEASURE(1.00000000000E-06),#614);
#617=PRESENTATION_STYLE_ASSIGNMENT((#616));
#618=STYLED_ITEM('',(#617),#418);
#619=(BOUNDED_CURVE() B_SPLINE_CURVE(1,(#795,#796),.UNSPECIFIED.,.F.,.F.) B_SPLINE_CURVE_WITH_KNOTS((2,2),(8.33333320912E-02,9.16666664070E-01),.UNSPECIFIED.) CURVE() GEOMETRIC_REPRESENTATION_ITEM() RATIONAL_B_SPLINE_CURVE((1.00000000000E+00,1.00000000000E+00)) REPRESENTATION_ITEM('') );
#620=COLOUR_RGB('',1.00000000000E+00,1.00000000000E+00,1.00000000000E+00);
#621=DRAUGHTING_PRE_DEFINED_CURVE_FONT('continuous');
#622=CURVE_STYLE( '',#621, POSITIVE_LENGTH_MEASURE(1.00000000000E-06),#620);
#623=PRESENTATION_STYLE_ASSIGNMENT((#622));
#624=STYLED_ITEM('',(#623),#419);
#625=(BOUNDED_CURVE() B_SPLINE_CURVE(1,(#797,#798),.UNSPECIFIED.,.F.,.F.) B_SPLINE_CURVE_WITH_KNOTS((2,2),(8.33333333333E-02,9.16666666667E-01),.UNSPECIFIED.) CURVE() GEOMETRIC_REPRESENTATION_ITEM() RATIONAL_B_SPLINE_CURVE((7.50000000000E-01,7.50000000000E-01)) REPRESENTATION_ITEM('') );
#626=COLOUR_RGB('',1.00000000000E+00,1.00000000000E+00,1.00000000000E+00);
#627=DRAUGHTING_PRE_DEFINED_CURVE_FONT('continuous');
#628=CURVE_STYLE( '',#627, POSITIVE_LENGTH_MEASURE(1.00000000000E-06),#626);
#629=PRESENTATION_STYLE_ASSIGNMENT((#628));
#630=STYLED_ITEM('',(#629),#420);
#631=(BOUNDED_CURVE() B_SPLINE_CURVE(1,(#799,#800),.UNSPECIFIED.,.F.,.F.) B_SPLINE_CURVE_WITH_KNOTS((2,2),(8.33333320912E-02,9.16666664070E-01),.UNSPECIFIED.) CURVE() GEOMETRIC_REPRESENTATION_ITEM() RATIONAL_B_SPLINE_CURVE((1.00000000000E+00,1.00000000000E+00)) REPRESENTATION_ITEM('') );
#632=COLOUR_RGB('',1.00000000000E+00,1.00000000000E+00,1.00000000000E+00);
#633=DRAUGHTING_PRE_DEFINED_CURVE_FONT('continuous');
#634=CURVE_STYLE( '',#633, POSITIVE_LENGTH_MEASURE(1.00000000000E-06),#632);
#635=PRESENTATION_STYLE_ASSIGNMENT((#634));
#636=STYLED_ITEM('',(#635),#421);
#637=(BOUNDED_CURVE() B_SPLINE_CURVE(1,(#801,#802),.UNSPECIFIED.,.F.,.F.) B_SPLINE_CURVE_WITH_KNOTS((2,2),(8.33333333333E-02,9.16666666667E-01),.UNSPECIFIED.) CURVE() GEOMETRIC_REPRESENTATION_ITEM() RATIONAL_B_SPLINE_CURVE((7.50000000000E-01,7.50000000000E-01)) REPRESENTATION_ITEM('') );
#638=COLOUR_RGB('',1.00000000000E+00,1.00000000000E+00,1.00000000000E+00);
#639=DRAUGHTING_PRE_DEFINED_CURVE_FONT('continuous');
#640=CURVE_STYLE( '',#639, POSITIVE_LENGTH_MEASURE(1.00000000000E-06),#638);
#641=PRESENTATION_STYLE_ASSIGNMENT((#640));
#642=STYLED_ITEM('',(#641),#422);
#643=(BOUNDED_CURVE() B_SPLINE_CURVE(1,(#803,#804),.UNSPECIFIED.,.F.,.F.) B_SPLINE_CURVE_WITH_KNOTS((2,2),(8.33333320912E-02,9.16666664070E-01),.UNSPECIFIED.) CURVE() GEOMETRIC_REPRESENTATION_ITEM() RATIONAL_B_SPLINE_CURVE((1.00000000000E+00,1.00000000000E+00)) REPRESENTATION_ITEM('') );
#644=COLOUR_RGB('',1.00000000000E+00,1.00000000000E+00,1.00000000000E+00);
#645=DRAUGHTING_PRE_DEFINED_CURVE_FONT('continuous');
#646=CURVE_STYLE( '',#645, POSITIVE_LENGTH_MEASURE(1.00000000000E-06),#644);
#647=PRESENTATION_STYLE_ASSIGNMENT((#646));
#648=STYLED_ITEM('',(#647),#423);
#649=(BOUNDED_CURVE() B_SPLINE_CURVE(1,(#805,#806),.UNSPECIFIED.,.F.,.F.) B_SPLINE_CURVE_WITH_KNOTS((2,2),(8.33333333333E-02,9.16666666667E-01),.UNSPECIFIED.) CURVE() GEOMETRIC_REPRESENTATION_ITEM() RATIONAL_B_SPLINE_CURVE((7.50000000000E-01,7.50000000000E-01)) REPRESENTATION_ITEM('') );
#650=COLOUR_RGB('',1.00000000000E+00,1.00000000000E+00,1.00000000000E+00);
#651=DRAUGHTING_PRE_DEFINED_CURVE_FONT('continuous');
#652=CURVE_STYLE( '',#651, POSITIVE_LENGTH_MEASURE(1.00000000000E-06),#650);
#653=PRESENTATION_STYLE_ASSIGNMENT((#652));
#654=STYLED_ITEM('',(#653),#424);
#655=(BOUNDED_CURVE() B_SPLINE_CURVE(1,(#807,#808),.UNSPECIFIED.,.F.,.F.) B_SPLINE_CURVE_WITH_KNOTS((2,2),(8.33333320912E-02,9.16666664070E-01),.UNSPECIFIED.) CURVE() GEOMETRIC_REPRESENTATION_ITEM() RATIONAL_B_SPLINE_CURVE((1.00000000000E+00,1.00000000000E+00)) REPRESENTATION_ITEM('') );
#656=COLOUR_RGB('',1.00000000000E+00,1.00000000000E+00,1.00000000000E+00);
#657=DRAUGHTING_PRE_DEFINED_CURVE_FONT('continuous');
#658=CURVE_STYLE( '',#657, POSITIVE_LENGTH_MEASURE(1.00000000000E-06),#656);
#659=PRESENTATION_STYLE_ASSIGNMENT((#658));
#660=STYLED_ITEM('',(#659),#425);
#661=(BOUNDED_CURVE() B_SPLINE_CURVE(1,(#809,#810),.UNSPECIFIED.,.F.,.F.) B_SPLINE_CURVE_WITH_KNOTS((2,2),(8.33333333333E-02,9.16666666667E-01),.UNSPECIFIED.) CURVE() GEOMETRIC_REPRESENTATION_ITEM() RATIONAL_B_SPLINE_CURVE((7.50000000000E-01,7.50000000000E-01)) REPRESENTATION_ITEM('') );
#662=COLOUR_RGB('',1.00000000000E+00,1.00000000000E+00,1.00000000000E+00);
#663=DRAUGHTING_PRE_DEFINED_CURVE_FONT('continuous');
#664=CURVE_STYLE( '',#663, POSITIVE_LENGTH_MEASURE(1.00000000000E-06),#662);
#665=PRESENTATION_STYLE_ASSIGNMENT((#664));
#666=STYLED_ITEM('',(#665),#426);
#667=CARTESIAN_POINT('',(3.80000000000E+01,2.36847578587E-15,2.32682891838E-15));
#668=CARTESIAN_POINT('',(-3.80000000000E+01,0.00000000000E+00,-2.32682891838E-15));
#669=CARTESIAN_POINT('',(-4.28626379702E-16,0.00000000000E+00,0.00000000000E+00));
#670=DIRECTION('',(6.12323399574E-17,0.00000000000E+00,-1.00000000000E+00));
#671=DIRECTION('',(-1.00000000000E+00,-1.22464679915E-16,-6.12323399574E-17));
#672=AXIS2_PLACEMENT_3D('',#669,#670,#671);
#673=CARTESIAN_POINT('',(-4.28626379702E-16,0.00000000000E+00,0.00000000000E+00));
#674=DIRECTION('',(6.12323399574E-17,0.00000000000E+00,-1.00000000000E+00));
#675=DIRECTION('',(-1.00000000000E+00,-1.22464679915E-16,-6.12323399574E-17));
#676=AXIS2_PLACEMENT_3D('',#673,#674,#675);
#677=CARTESIAN_POINT('',(1.52989898732E+01,-1.97989898732E+01,-2.75545529808E-16));
#678=CARTESIAN_POINT('',(2.42989898732E+01,-1.97989898732E+01,2.75545529808E-16));
#679=CARTESIAN_POINT('',(1.97989898732E+01,-1.97989898732E+01,0.00000000000E+00));
#680=DIRECTION('',(6.12323399574E-17,0.00000000000E+00,-1.00000000000E+00));
#681=DIRECTION('',(-1.00000000000E+00,-1.22464679915E-16,-6.12323399574E-17));
#682=AXIS2_PLACEMENT_3D('',#679,#680,#681);
#683=CARTESIAN_POINT('',(1.97989898732E+01,-1.97989898732E+01,0.00000000000E+00));
#684=DIRECTION('',(6.12323399574E-17,0.00000000000E+00,-1.00000000000E+00));
#685=DIRECTION('',(-1.00000000000E+00,-1.22464679915E-16,-6.12323399574E-17));
#686=AXIS2_PLACEMENT_3D('',#683,#684,#685);
#687=CARTESIAN_POINT('',(-2.42989898732E+01,-1.97989898732E+01,-2.75545529808E-16));
#688=CARTESIAN_POINT('',(-1.52989898732E+01,-1.97989898732E+01,2.75545529808E-16));
#689=CARTESIAN_POINT('',(-1.97989898732E+01,-1.97989898732E+01,0.00000000000E+00));
#690=DIRECTION('',(6.12323399574E-17,0.00000000000E+00,-1.00000000000E+00));
#691=DIRECTION('',(-1.00000000000E+00,-1.22464679915E-16,-6.12323399574E-17));
#692=AXIS2_PLACEMENT_3D('',#689,#690,#691);
#693=CARTESIAN_POINT('',(-1.97989898732E+01,-1.97989898732E+01,0.00000000000E+00));
#694=DIRECTION('',(6.12323399574E-17,0.00000000000E+00,-1.00000000000E+00));
#695=DIRECTION('',(-1.00000000000E+00,-1.22464679915E-16,-6.12323399574E-17));
#696=AXIS2_PLACEMENT_3D('',#693,#694,#695);
#697=CARTESIAN_POINT('',(-2.42989898732E+01,1.97989898732E+01,-2.75545529808E-16));
#698=CARTESIAN_POINT('',(-1.52989898732E+01,1.97989898732E+01,2.75545529808E-16));
#699=CARTESIAN_POINT('',(-1.97989898732E+01,1.97989898732E+01,0.00000000000E+00));
#700=DIRECTION('',(6.12323399574E-17,0.00000000000E+00,-1.00000000000E+00));
#701=DIRECTION('',(-1.00000000000E+00,-1.22464679915E-16,-6.12323399574E-17));
#702=AXIS2_PLACEMENT_3D('',#699,#700,#701);
#703=CARTESIAN_POINT('',(-1.97989898732E+01,1.97989898732E+01,0.00000000000E+00));
#704=DIRECTION('',(6.12323399574E-17,0.00000000000E+00,-1.00000000000E+00));
#705=DIRECTION('',(-1.00000000000E+00,-1.22464679915E-16,-6.12323399574E-17));
#706=AXIS2_PLACEMENT_3D('',#703,#704,#705);
#707=CARTESIAN_POINT('',(1.52989898732E+01,1.97989898732E+01,-2.75545529808E-16));
#708=CARTESIAN_POINT('',(2.42989898732E+01,1.97989898732E+01,2.75545529808E-16));
#709=CARTESIAN_POINT('',(1.97989898732E+01,1.97989898732E+01,0.00000000000E+00));
#710=DIRECTION('',(6.12323399574E-17,0.00000000000E+00,-1.00000000000E+00));
#711=DIRECTION('',(-1.00000000000E+00,-1.22464679915E-16,-6.12323399574E-17));
#712=AXIS2_PLACEMENT_3D('',#709,#710,#711);
#713=CARTESIAN_POINT('',(1.97989898732E+01,1.97989898732E+01,0.00000000000E+00));
#714=DIRECTION('',(6.12323399574E-17,0.00000000000E+00,-1.00000000000E+00));
#715=DIRECTION('',(-1.00000000000E+00,-1.22464679915E-16,-6.12323399574E-17));
#716=AXIS2_PLACEMENT_3D('',#713,#714,#715);
#717=CARTESIAN_POINT('',(-1.75000000000E+01,0.00000000000E+00,-1.07156594925E-15));
#718=CARTESIAN_POINT('',(1.75000000000E+01,5.92118946467E-16,1.07156594925E-15));
#719=CARTESIAN_POINT('',(-4.28626379702E-16,0.00000000000E+00,0.00000000000E+00));
#720=DIRECTION('',(6.12323399574E-17,1.36845553157E-48,-1.00000000000E+00));
#721=DIRECTION('',(-1.00000000000E+00,-1.22464679915E-16,-6.12323399574E-17));
#722=AXIS2_PLACEMENT_3D('',#719,#720,#721);
#723=CARTESIAN_POINT('',(-4.28626379702E-16,0.00000000000E+00,0.00000000000E+00));
#724=DIRECTION('',(6.12323399574E-17,1.36845553157E-48,-1.00000000000E+00));
#725=DIRECTION('',(-1.00000000000E+00,-1.22464679915E-16,-6.12323399574E-17));
#726=AXIS2_PLACEMENT_3D('',#723,#724,#725);
#727=CARTESIAN_POINT('',(-3.80000000000E+01,2.36847578587E-15,-7.00000000000E+00));
#728=CARTESIAN_POINT('',(3.80000000000E+01,0.00000000000E+00,-7.00000000000E+00));
#729=CARTESIAN_POINT('',(0.00000000000E+00,0.00000000000E+00,-7.00000000000E+00));
#730=DIRECTION('',(-6.12323399574E-17,0.00000000000E+00,1.00000000000E+00));
#731=DIRECTION('',(1.00000000000E+00,-1.22464679915E-16,6.12323399574E-17));
#732=AXIS2_PLACEMENT_3D('',#729,#730,#731);
#733=CARTESIAN_POINT('',(0.00000000000E+00,0.00000000000E+00,-7.00000000000E+00));
#734=DIRECTION('',(-6.12323399574E-17,0.00000000000E+00,1.00000000000E+00));
#735=DIRECTION('',(1.00000000000E+00,-1.22464679915E-16,6.12323399574E-17));
#736=AXIS2_PLACEMENT_3D('',#733,#734,#735);
#737=CARTESIAN_POINT('',(2.42989898732E+01,-1.97989898732E+01,-7.00000000000E+00));
#738=CARTESIAN_POINT('',(1.52989898732E+01,-1.97989898732E+01,-7.00000000000E+00));
#739=CARTESIAN_POINT('',(1.97989898732E+01,-1.97989898732E+01,-7.00000000000E+00));
#740=DIRECTION('',(-6.12323399574E-17,0.00000000000E+00,1.00000000000E+00));
#741=DIRECTION('',(1.00000000000E+00,-1.22464679915E-16,6.12323399574E-17));
#742=AXIS2_PLACEMENT_3D('',#739,#740,#741);
#743=CARTESIAN_POINT('',(1.97989898732E+01,-1.97989898732E+01,-7.00000000000E+00));
#744=DIRECTION('',(-6.12323399574E-17,0.00000000000E+00,1.00000000000E+00));
#745=DIRECTION('',(1.00000000000E+00,-1.22464679915E-16,6.12323399574E-17));
#746=AXIS2_PLACEMENT_3D('',#743,#744,#745);
#747=CARTESIAN_POINT('',(-1.52989898732E+01,-1.97989898732E+01,-7.00000000000E+00));
#748=CARTESIAN_POINT('',(-2.42989898732E+01,-1.97989898732E+01,-7.00000000000E+00));
#749=CARTESIAN_POINT('',(-1.97989898732E+01,-1.97989898732E+01,-7.00000000000E+00));
#750=DIRECTION('',(-6.12323399574E-17,0.00000000000E+00,1.00000000000E+00));
#751=DIRECTION('',(1.00000000000E+00,-1.22464679915E-16,6.12323399574E-17));
#752=AXIS2_PLACEMENT_3D('',#749,#750,#751);
#753=CARTESIAN_POINT('',(-1.97989898732E+01,-1.97989898732E+01,-7.00000000000E+00));
#754=DIRECTION('',(-6.12323399574E-17,0.00000000000E+00,1.00000000000E+00));
#755=DIRECTION('',(1.00000000000E+00,-1.22464679915E-16,6.12323399574E-17));
#756=AXIS2_PLACEMENT_3D('',#753,#754,#755);
#757=CARTESIAN_POINT('',(-1.52989898732E+01,1.97989898732E+01,-7.00000000000E+00));
#758=CARTESIAN_POINT('',(-2.42989898732E+01,1.97989898732E+01,-7.00000000000E+00));
#759=CARTESIAN_POINT('',(-1.97989898732E+01,1.97989898732E+01,-7.00000000000E+00));
#760=DIRECTION('',(-6.12323399574E-17,0.00000000000E+00,1.00000000000E+00));
#761=DIRECTION('',(1.00000000000E+00,-1.22464679915E-16,6.12323399574E-17));
#762=AXIS2_PLACEMENT_3D('',#759,#760,#761);
#763=CARTESIAN_POINT('',(-1.97989898732E+01,1.97989898732E+01,-7.00000000000E+00));
#764=DIRECTION('',(-6.12323399574E-17,0.00000000000E+00,1.00000000000E+00));
#765=DIRECTION('',(1.00000000000E+00,-1.22464679915E-16,6.12323399574E-17));
#766=AXIS2_PLACEMENT_3D('',#763,#764,#765);
#767=CARTESIAN_POINT('',(2.42989898732E+01,1.97989898732E+01,-7.00000000000E+00));
#768=CARTESIAN_POINT('',(1.52989898732E+01,1.97989898732E+01,-7.00000000000E+00));
#769=CARTESIAN_POINT('',(1.97989898732E+01,1.97989898732E+01,-7.00000000000E+00));
#770=DIRECTION('',(-6.12323399574E-17,0.00000000000E+00,1.00000000000E+00));
#771=DIRECTION('',(1.00000000000E+00,-1.22464679915E-16,6.12323399574E-17));
#772=AXIS2_PLACEMENT_3D('',#769,#770,#771);
#773=CARTESIAN_POINT('',(1.97989898732E+01,1.97989898732E+01,-7.00000000000E+00));
#774=DIRECTION('',(-6.12323399574E-17,0.00000000000E+00,1.00000000000E+00));
#775=DIRECTION('',(1.00000000000E+00,-1.22464679915E-16,6.12323399574E-17));
#776=AXIS2_PLACEMENT_3D('',#773,#774,#775);
#777=CARTESIAN_POINT('',(1.75000000000E+01,0.00000000000E+00,-7.00000000000E+00));
#778=CARTESIAN_POINT('',(-1.75000000000E+01,5.92118946467E-16,-7.00000000000E+00));
#779=CARTESIAN_POINT('',(4.81482486097E-32,0.00000000000E+00,-7.00000000000E+00));
#780=DIRECTION('',(-6.12323399574E-17,1.36845553157E-48,1.00000000000E+00));
#781=DIRECTION('',(1.00000000000E+00,-1.22464679915E-16,6.12323399574E-17));
#782=AXIS2_PLACEMENT_3D('',#779,#780,#781);
#783=CARTESIAN_POINT('',(4.81482486097E-32,0.00000000000E+00,-7.00000000000E+00));
#784=DIRECTION('',(-6.12323399574E-17,1.36845553157E-48,1.00000000000E+00));
#785=DIRECTION('',(1.00000000000E+00,-1.22464679915E-16,6.12323399574E-17));
#786=AXIS2_PLACEMENT_3D('',#783,#784,#785);
#787=CARTESIAN_POINT('',(1.75000000000E+01,0.00000000000E+00,-7.00000001043E+00));
#788=CARTESIAN_POINT('',(1.75000000000E+01,0.00000000000E+00,-2.18078430869E-08));
#789=CARTESIAN_POINT('',(-1.75000000000E+01,-1.77635683940E-15,-7.00000000000E+00));
#790=CARTESIAN_POINT('',(-1.75000000000E+01,-1.77635683940E-15,-1.55431223448E-15));
#791=CARTESIAN_POINT('',(2.42989898732E+01,-1.97989898732E+01,-7.00000001043E+00));
#792=CARTESIAN_POINT('',(2.42989898732E+01,-1.97989898732E+01,-2.18078438641E-08));
#793=CARTESIAN_POINT('',(1.52989898732E+01,-1.97989898732E+01,-7.00000000000E+00));
#794=CARTESIAN_POINT('',(1.52989898732E+01,-1.97989898732E+01,-7.40148683083E-17));
#795=CARTESIAN_POINT('',(2.42989898732E+01,1.97989898732E+01,-7.00000001043E+00));
#796=CARTESIAN_POINT('',(2.42989898732E+01,1.97989898732E+01,-2.18078438641E-08));
#797=CARTESIAN_POINT('',(1.52989898732E+01,1.97989898732E+01,-7.00000000000E+00));
#798=CARTESIAN_POINT('',(1.52989898732E+01,1.97989898732E+01,-7.40148683083E-17));
#799=CARTESIAN_POINT('',(-1.52989898732E+01,1.97989898732E+01,-7.00000001043E+00));
#800=CARTESIAN_POINT('',(-1.52989898732E+01,1.97989898732E+01,-2.18078438641E-08));
#801=CARTESIAN_POINT('',(-2.42989898732E+01,1.97989898732E+01,-7.00000000000E+00));
#802=CARTESIAN_POINT('',(-2.42989898732E+01,1.97989898732E+01,-7.40148683083E-17));
#803=CARTESIAN_POINT('',(-1.52989898732E+01,-1.97989898732E+01,-7.00000001043E+00));
#804=CARTESIAN_POINT('',(-1.52989898732E+01,-1.97989898732E+01,-2.18078438641E-08));
#805=CARTESIAN_POINT('',(-2.42989898732E+01,-1.97989898732E+01,-7.00000000000E+00));
#806=CARTESIAN_POINT('',(-2.42989898732E+01,-1.97989898732E+01,-7.40148683083E-17));
#807=CARTESIAN_POINT('',(-3.80000000000E+01,0.00000000000E+00,1.04336107531E-08));
#808=CARTESIAN_POINT('',(-3.80000000000E+01,0.00000000000E+00,-6.99999997819E+00));
#809=CARTESIAN_POINT('',(3.80000000000E+01,-2.36847578587E-15,2.29446091756E-15));
#810=CARTESIAN_POINT('',(3.80000000000E+01,-2.36847578587E-15,-7.00000000000E+00));
#811=MECHANICAL_DESIGN_GEOMETRIC_PRESENTATION_REPRESENTATION( '', (#74,#103,#118,#128,#138,#148,#158,#168,#178,#188,#198,#208,#218,#228,#238,#434,#440,#448,#454,#462,#468,#476,#482,#490,#496,#504,#510,#518,#524,#532,#538,#546,#552,#560,#566,#574,#580,#588,#594,#600,#606,#612,#618,#624,#630,#636,#642,#648,#654,#660,#666),#10);
ENDSEC;
END-ISO-10303-21;
